<svg width="16" height="16" viewBox="0 0 16 16" fill="none" xmlns="http://www.w3.org/2000/svg">
<path d="M5.81956 0.180906C5.88507 -0.0135323 6.14152 -0.0635481 6.27774 0.0915476L8.82267 2.98916C8.89581 3.07243 9.01391 3.10237 9.11897 3.06428L12.7746 1.73884C12.9703 1.66789 13.17 1.83357 13.1314 2.03484L12.4109 5.79507C12.3901 5.90313 12.4399 6.01247 12.5358 6.06936L15.8705 8.04919C16.0489 8.15516 16.0415 8.41178 15.8572 8.50766L12.4138 10.299C12.3148 10.3505 12.2588 10.4569 12.2732 10.5659L12.7759 14.3601C12.8028 14.5632 12.5938 14.7175 12.4026 14.6358L8.82919 13.1094C8.7265 13.0655 8.60686 13.0888 8.52904 13.1679L5.82114 15.9194C5.6762 16.0667 5.42304 16.0025 5.36885 15.8047L4.35641 12.1099C4.32731 12.0037 4.23414 11.9264 4.12265 11.916L0.243319 11.5528C0.0356761 11.5334 -0.0710524 11.2991 0.0526377 11.1342L2.3635 8.05327C2.42992 7.96473 2.43337 7.84501 2.37217 7.75292L0.242617 4.54855C0.128632 4.37704 0.2487 4.14899 0.45713 4.14112L4.35118 3.99415C4.46309 3.98992 4.56057 3.91793 4.59574 3.81354L5.81956 0.180906Z" fill="black"/>
</svg>
