<svg width="32" height="32" viewBox="0 0 32 32" fill="none" xmlns="http://www.w3.org/2000/svg">
<path d="M11.6391 0.361812C11.7701 -0.0270647 12.283 -0.127096 12.5555 0.183095L17.6453 5.97831C17.7916 6.14486 18.0278 6.20475 18.2379 6.12857L25.5492 3.47767C25.9405 3.33578 26.34 3.66714 26.2629 4.06968L24.8217 11.5901C24.7803 11.8063 24.8799 12.0249 25.0715 12.1387L31.7409 16.0984C32.0979 16.3103 32.0831 16.8236 31.7145 17.0153L24.8275 20.598C24.6296 20.7009 24.5176 20.9137 24.5465 21.1318L25.5517 28.7203C25.6055 29.1265 25.1876 29.4351 24.8051 29.2717L17.6584 26.2187C17.453 26.131 17.2137 26.1776 17.0581 26.3358L11.6423 31.8388C11.3524 32.1334 10.8461 32.005 10.7377 31.6095L8.71282 24.2198C8.65462 24.0075 8.46828 23.8529 8.2453 23.832L0.486638 23.1057C0.0713522 23.0668 -0.142105 22.5981 0.105275 22.2683L4.72701 16.1065C4.85983 15.9295 4.86674 15.69 4.74434 15.5058L0.485235 9.0971C0.257265 8.75407 0.497399 8.29798 0.914261 8.28224L8.70236 7.9883C8.92618 7.97985 9.12114 7.83587 9.19148 7.62708L11.6391 0.361812Z" fill="black"/>
</svg>
