<svg width="64" height="64" viewBox="0 0 64 64" fill="none" xmlns="http://www.w3.org/2000/svg">
<path d="M23.2783 0.723623C23.5403 -0.0541294 24.5661 -0.254193 25.111 0.36619L35.2907 11.9566C35.5832 12.2897 36.0556 12.4095 36.4759 12.2571L51.0984 6.95535C51.8811 6.67157 52.68 7.33428 52.5257 8.13935L49.6434 23.1803C49.5606 23.6125 49.7598 24.0499 50.1431 24.2775L63.4818 32.1968C64.1958 32.6206 64.1662 33.6471 63.4289 34.0306L49.655 41.1959C49.2592 41.4018 49.0351 41.8274 49.0929 42.2636L51.1035 57.4406C51.2111 58.2529 50.3753 58.8702 49.6102 58.5434L35.3168 52.4374C34.906 52.2619 34.4274 52.3553 34.1161 52.6716L23.2846 63.6777C22.7048 64.2668 21.6922 64.01 21.4754 63.219L17.4256 48.4397C17.3092 48.0149 16.9366 47.7058 16.4906 47.664L0.973276 46.2114C0.142704 46.1336 -0.28421 45.1962 0.210551 44.5366L9.45402 32.2131C9.71966 31.8589 9.73348 31.38 9.48868 31.0117L0.97047 18.1942C0.514529 17.5081 0.994799 16.596 1.82852 16.5645L17.4047 15.9766C17.8524 15.9597 18.2423 15.6717 18.383 15.2542L23.2783 0.723623Z" fill="black"/>
</svg>
