<svg width="64" height="64" viewBox="0 0 64 64" fill="none" xmlns="http://www.w3.org/2000/svg">
<rect width="64" height="64" fill="black"/>
<path d="M24.6894 5.29987C24.909 4.63592 25.7688 4.46513 26.2255 4.99474L34.7581 14.8893C35.0033 15.1736 35.3993 15.2759 35.7515 15.1458L48.008 10.6198C48.6641 10.3775 49.3337 10.9433 49.2044 11.6306L46.7885 24.4707C46.719 24.8397 46.886 25.2131 47.2073 25.4074L58.3877 32.1679C58.9861 32.5298 58.9613 33.4061 58.3433 33.7335L46.7982 39.8504C46.4664 40.0262 46.2786 40.3895 46.327 40.7618L48.0123 53.7181C48.1025 54.4116 47.4019 54.9386 46.7606 54.6596L34.78 49.447C34.4357 49.2972 34.0345 49.3769 33.7736 49.6469L24.6947 59.0426C24.2087 59.5456 23.3599 59.3264 23.1782 58.651L19.7838 46.0342C19.6862 45.6716 19.3738 45.4077 19 45.3721L5.99353 44.132C5.29735 44.0656 4.93951 43.2654 5.35422 42.7022L13.102 32.1819C13.3247 31.8795 13.3363 31.4707 13.1311 31.1563L5.99117 20.2142C5.60901 19.6285 6.01157 18.8498 6.71039 18.8229L19.7662 18.3211C20.1414 18.3066 20.4683 18.0608 20.5862 17.7043L24.6894 5.29987Z" fill="#FFEED6"/>
</svg>
